<?xml version="1.0" encoding="UTF-8"?>
<svg xmlns="http://www.w3.org/2000/svg" viewBox="0 0 1254 1254">
  <defs><style>
    .st0 { fill: #5c9138; }
    .st1 { fill: #f5b800; }
  </style></defs>
  <path class="st1" d="M486.2,486.1c68.1-6.4,95,45.1,159.4,45,56.2-.1,81.5-41.9,134.4-45.5,117.4-7.9,145.8,135.5,143.3,225.8-3.5,123.4-50,342.8-129.3,439.3-80,97.3-221.9,89.2-299.5-6.7-76.3-94.2-125.2-307.3-129.3-427.4-2.7-80.1,20.5-221.3,121-230.7Z"/>
  <path class="st1" d="M843.7,1155.2c-4.7-3.4,5.9-14.6,8.2-18.5,42.9-70.2,69.3-160.6,86.7-240.9,25.8-119.3,55.3-321.8-45.9-413.5-3.8-3.5-24.7-17.4-25.2-18.9-1.2-3.6,8.3-17,10.1-22.8,4-12.6,4.2-27.3.8-40-4.9-18.2-16.7-16.6,1.6-32.1,42.3-36,108-49.4,161.5-36.4,190.6,46.2,117.1,355,76.5,486.2-33.9,109.3-113.6,302.8-236.1,333.9-7.1,1.8-33.1,6.8-38.3,3.1Z"/>
  <path class="st1" d="M278.5,327.6c42.1-3.4,106.4,10.8,136.7,42.2,7.1,7.3-2.3,13.5-5.8,20.8-8.8,18.5-9.4,41.1,0,59.5,2.2,4.3,10.2,11.8,8.9,15.9s-21.2,17.4-25.2,21.5c-97.7,101.7-69.3,293.7-40.8,419.1,17.4,76.7,43.3,157.4,84.3,224.7,4.5,7.3,20.5,22.5,6.2,25.1-33.3,6.1-90.2-29.8-114.2-51.6-112-101.4-181.3-341.5-198.9-488.2-13.7-114.3,3.3-277.2,148.7-289.1Z"/>
  <path class="st0" d="M479.5,372.1c3.2-3.3,0-12.9.7-18.6,4.1-30.7,46.3-42.4,72.1-35.5,6.7,1.8,12.9,7.4,18,8.7s2.1,1.1,3.4-.8c2.5-3.7,3.9-25.9,5.1-32.2,17.6-95.9,76.8-212.3,183.1-231.1,48.4-8.5,88.8,31.3,63.1,76.4-16.6,29.3-44.8,21.9-69.9,38-36.3,23.2-61,93.4-58.2,135,1.6,24.5,6.3,13.8,21.4,8,25.3-9.8,66.2-3.8,75.5,25.6,2.3,7.2.4,19.8,2.9,23.7s12.6,5.9,17,8.3c23.6,12.9,36.2,46.1,13.8,66.2s-16.7,3.6-28.6,3.2c-23-.8-46.6.6-68.2,9.1-29.3,11.6-44.9,33.1-79.6,34.9-46.4,2.5-66.7-27-107-38.3-18.5-5.2-39-6.7-58.2-5.7s-18.3,6.6-30.6-2.7c-23.6-17.7-12.2-51.2,9.6-65,3.3-2.1,13.1-5.5,14.7-7.2Z"/>
  <path class="st1" d="M1053.8,307.2c-68.5-18.8-139.1-4.2-195,38.7-2.8,2.2-8.3,9.8-11.8,9.1s-12.5-9-12.9-9.7c-1.8-2.9-2.6-11.8-4.6-16.7-12.3-30.3-46.8-45.3-77.4-49.1-3.7-.5-15.5,1.2-16.3-2.3-.7-2.9,8.7-28.5,10.7-33,3.3-7.5,15.7-30.3,22-33.9s22.5-6.6,29.5-7.8c81.6-13.7,197.1,20,247.9,88.2,3.6,4.9,8.6,10,8,16.6Z"/>
  <path class="st1" d="M546.3,280.4c-37.6-2.5-83.2,15.3-96.8,53s-1.1,19.2-9,15.1-16.8-13-24.7-17.9c-49.2-30.3-107.4-38.3-163.7-24.8-.9-5.8,3.6-9.7,6.7-13.9,24.1-33.1,68.1-59.9,106.1-73.6,60.9-22,136.2-28.7,196.1-1l-14.8,63.1Z"/>
</svg>
