<?xml version="1.0" encoding="UTF-8"?>
<svg id="_レイヤー_1" data-name="レイヤー_1" xmlns="http://www.w3.org/2000/svg" version="1.1" viewBox="0 0 519.9 463.3">
  <!-- Generator: Adobe Illustrator 30.5.1, SVG Export Plug-In . SVG Version: 2.1.4 Build 3)  -->
  <defs>
    <style>
      .st0 {
        fill: #fff;
      }

      .st1 {
        fill: #cf567f;
      }

      .st2 {
        fill: #188f8e;
      }

      .st3 {
        fill: #213258;
      }

      .st4 {
        fill: #198b8c;
      }

      .st5 {
        fill: #cca67e;
      }

      .st6 {
        fill: #192e56;
      }
    </style>
  </defs>
  <g>
    <path class="st2" d="M365.7,79.3c7.2-7.2,13.6-14.9,18.9-23.8,7.8-12.7,12.8-29.8,5-43.2-3.2-5.4-8.3-9.1-14.2-11S366.7,0,362.2,0s-3.2.3-4.9.7c-8,1.6-15.3,4.3-22.5,8.2-12,6.4-22.9,14.5-33.2,23.5-22.7,20.1-41.7,43.9-56.4,70.6l-18.6-23.9-16.9-23.4-5.3-6.9-2.7-2.7-2.7-2.5-2.4-2.1-2.5-1.9c-14.4-10.9-33.4-13-50.4-6.8l-5.7,2.6-4.5,2.6-7.4,5.9-2.1,2-2.6,3-3.2,4.3-1.6,2.3c-2,2.8-3.3,5.7-6.8,8.3s-12.2,5.7-18.2,6-5,.5-6.3,3.3-.3,3.9.7,5.2,1.8,1.6,2.6,1.7c8.5,1.6,18.5,5.3,23.6,12.1l1.8,2.4,1.7,2.6,3.6,7.3,1.8,4.9,1.8,6.8c2.7,9.9,5.7,52.7,5.7,52.7,1.3,8.4,3.3,16.3,5.8,24.5s6.6,18,11.3,26.4c26.6,46.5,79,61.6,129.8,56.2l7.7-.8c2.8-.8,5.6-.9,8.5-1.5l5.2-1c37.7-7.6,89.5-31.1,107-67.2,9.5-19.5,7-43.3-14.4-52.1-6.6-2.7-13.4-3.9-20.5-4.2l12.9-8c11.2-8.1,21.7-18.7,25.7-32.1s1.7-8.1,1-12c-1.2-7.3-5.5-13-12-16.1-5.8-2.8-12.1-3.4-18.5-3l-3.7.3-4.8.9c-1.2.2-2.3.9-3.5.7l-.3-.2ZM225.1,156.8c-1.7,10.5-1.9,22.5,6.5,29.9s10.8,5.7,17.2,4.5c11.4-2.2,16.8-13.5,17.4-24.8.8-18.7-5.8-38.1-14.6-54.6,10.2-19.6,22.9-37.2,37.5-53.4s5.5-6.2,8.7-9.1l2.2-2.1c14.8-14,33.8-29.4,53.4-35.4s12.2-2.7,18.4-1.2,10.5,6.1,11.6,12.4c2.1,11.4-4.6,24.4-11.3,33.8-11.5,16.3-33.4,34.9-50.3,45.6l-16.2,10.3c-2.5,1.6-3.8,3.8-2.8,6.5s4,4.3,6.5,2.7l14.1-8.8,14.2-9.2c11.2-7.2,28.8-15.9,41.8-16.5s8.4.2,12.4,1.9c7.6,3.3,8.8,11.6,5.7,19.1-2.6,6.4-6.7,11.9-11.8,16.7-14,13.4-37.7,24.1-56.3,28.4l-14.6,3.4c-3.3.8-5.4,3.1-4.6,6.5s3.7,4.1,6.8,3.4l20.3-4.7,6.3-1.2c4.1-.8,8.1-1.4,12.3-1.6,10.5-.6,20.5-1,30.4,3.4,16.1,7.1,15,26.4,7.2,40.7s-31,32.9-49.8,42.3c-16.7,8.4-34.4,14-52.7,17.7l-8.3,1.3c-15.1,2.4-31.8,2.7-47,.8-13.2-1.7-25.7-5.2-37.7-10.8-20.8-9.7-37.1-26-47.1-46.8-5.2-10.8-8.8-22.1-11.3-33.9l-2.4-13.3c-.6-3.8-1.4-17.3-1.4-17.3l-.2-4.9-1.2-14.2-1-7c-3.6-16.8-10-32.2-25.7-41.2,5.8-2.5,9.7-5.3,13.4-9.9l1.7-2.1,1.6-2.8c.4-.6,1.1-1.5,1.4-2.2.5-1.2,1.2-1.7,1.9-2.6s1.2-1.7,1.9-2.5l2.4-2.5c1.6-1.8,6.7-5.5,9-6.6l4.1-2,7.1-2.2c4-1.3,7.9-1.2,12.1-1.1,7.8,0,15.2,2.7,21.8,6.8l2.2,1.6c2.8,2,4.8,4.1,5.5,4.5,1,.6,1.1,1.4,1.6,2,.9,1,1.8,1.6,2.6,2.7l3.4,4.7,3.6,5.6,5.2,7.2s26.1,33.7,29.7,38.2c-5.6,12-10.4,24.1-13.6,36.9-.9,3.7-1.4,6.4-1.6,7.2ZM246.2,123.3c5.4,11.4,8.7,22.7,9.9,34.6.7,9.1,0,21.5-9.4,23.6s-8.6-.9-10.8-4.8-2.2-6.3-2.1-9.9c.6-14.1,6.5-30.8,12.3-43.5ZM365.2,79.7h.6c0,0-.6,0-.6,0Z"/>
    <path class="st0" d="M246.2,123.3c-5.7,12.7-11.7,29.5-12.3,43.5s.3,6.8,2.1,9.9,6.3,5.8,10.8,4.8c9.5-2.1,10.1-14.5,9.4-23.6-1.2-11.9-4.5-23.2-9.9-34.6Z"/>
    <path class="st2" d="M163.5,75.1c-.4-1.3-.5-3.1-1.3-4l-1.9-2c-2.5-2.7-7.4-2.7-10.5-.7s-5.4,7.8-3,11.9,6.9,5.6,11.3,3.8,6.3-5.7,5.4-9.1Z"/>
  </g>
  <path class="st0" d="M341.2,313.2c0,.3-.5.6-1,.4.2-.5.8-.5,1-.4Z"/>
  <path class="st5" d="M341.2,313.2c-.3-.1-.9,0-1,.4-1.8-.2-2.3,1.7-6.2,1.2l-20-2.4-37.7,12.2c6.4,1.4,12.7,1.4,19.3,1.3s3.6.5,4.2,2.3-.2,3.9-2.1,4.1c-9.9,1-19.8,0-29.3-1.9.7-.8,1.2-.9,1.4-1.3.2-.5.1-1.2-.2-1.4-1.1,2.1-3.2,2.5-5.1,2.8-6.2,1-12.2,1.6-18.6,1.4-11.4-.3-22.8-1.6-34-5.6,4.4-1,8.6-2.7,12.6-2.9,7.9.4,15.4,2.6,23.8,2l-10.9-5.2,9-2.2,13.9,5.2,5.9,1.9,3.4-2.9c.9-.7,1.3-2.6,2.6-3l19.4-6.1,7.4-2.4-18.7-2.9c1.1-.9,2.6-.6,3.7-1.1.1-.1.1-1,0-1.2-9-2.2-10.3,3.1-12.2,2.9l-11.9-1c-1.3-.1-2.7,0-3.3,1l7.8,1.5c-2.8,1.7-5.4,2.4-8.2,3.2l-27,7.3-17,3.6c-12.4,2.1-24.5,3.3-37.2,2.4-17.2-1.2-33.7-5.7-49.3-12.6-1.6-.7-1.5-3-1.2-4.1s2-2.8,3.7-2.1c28.7,12,55.7,15.3,86.5,9.3,13.3-2.8,26.1-5.8,39.5-10.6-17.3-4.1-33.3-7.9-49.5-13.5l-30.4-11.5c-1.3-.5-2-1.4-2.2-2.5s.3-2.2,1.2-3.1c1.4-1.5,3.4-1,5.2-.2,22.2,9.6,48,17.4,71.7,22.8,4,.9,7.8,2.4,11.9,2.4s5.5-1,8.2-1.6l30.5-7.5,9.9-2.3,7.5-2.6,22.1-7.7c1.6-.6,3.3-.2,4.1,1.2s.7,3.7-.9,4.4c-11.8,5.3-23.8,9-36.4,12.1l-15.8,4-8.4,2,7.9,1c2.2.3,4.1.4,6.4.6l15,1.5c5.7-.3,14.6-5.9,23.3-3.9s1.5,1.3,1.6,1.8-.6,1.9-1.5,2.2l-10.7,3.4,15.1,3.1h1.4c.2,0,.3.3.2.7Z"/>
  <path class="st5" d="M340.2,313.6c.5.2,1-.1,1-.4,7.9-3.7,15.1-7.9,22.2-13.3h-17.6c0,.1-15.4.7-15.4.7h-1.2c-.2,0-.7-1-.4-1.1l11.6-4.1c4.2-1.5,8.5-1.8,13-2l19-.6,9.6-1,11-1.8c2.1-.3,3.5,1.7,3.4,3.2-.1,2.2-1.6,2.4-3.5,3-6.2,1.7-12.5,2.3-18.7,3.7l-10.7,7.4-7.1,4.7,13.3-1.1-2.4,1.2,8.7-1c1.5-.2,1.4,2.4.9,3.3-.7,1.4-1.8,1.5-3.3,1.8l-9.7,1.9c-6.8.8-13.3,1.3-20.1,1.2-8.5,4.6-17.3,8.3-26.6,10s-3.3-1.4-3.5-2.6.7-2.8,2.1-3.3l13.2-4.2,10.3-4.6c.5-.2.7-.5.8-1Z"/>
  <path class="st6" d="M303.3,237.3v14.1c-.1,16.5-9.9,33.6-25.2,41.2s-8.2,2.4-12.1,2.9h-16.1c-7.5-.9-14.9-2.7-21.6-6.3-4.8-2.6-8.3-6.6-11.4-10.6.3-.8,0-1.5-.6-2.1-1.5-1.9.2-3.1-.6-4s-.6-.3-.8.2-.1.3-.5.5l-3-6c-2.1-7.2-3.5-14.4-3-21.9s.3-2.8-.6-4.1c2.9-21.7,13.2-46.1,32.8-57.4,12.9-7.4,28.3-6.2,39.7,3.2,12.8,10.6,20,27,22.4,43.3.2,1.1.4,2.1.5,3.2l.3,3.6ZM239.9,196c-4.4,3.6-7.9,8-11,12.9-.1,0-.5-.2-.6-.1-.2.2-.6.6-.8,1-7.5,12.8-13.2,30.1-11.1,44.8-1.1.2-1.4.7-1.3,1.5s.6,1.1,1.6.7c.9,3.9,3.8,12.1,4.7,12.3s.5-.2.5-.3c3.7,6.7,9.2,11.9,16.2,15,0,1.1.7,1.1,1.5,1.4,8.9,3.8,18.4,4.5,27.8,2,.5-.1.7-.6.6-1,7.5-2.2,14.2-6.7,18.6-13.1.2,0,.5.3.7.2s.5-.5.6-.7c4.1-6.3,6.4-13.5,7.1-21.1v-13.5c-.5-7.2-2.2-14-4.7-20.7s-.2-.5-.3-.7-.5-.2-.8.1l-4.5-9.2c-3.2-5.4-7-10.1-12.1-13.7,0-.3.2-.4.3-.7-3.5-2.3-7.1-4.8-11.3-4.8h-7.1c-5.5.8-10.4,3.6-14.8,7-.4.3,0,.9.2.9Z"/>
  <path class="st6" d="M59.6,418.2c-5.5,3.9-14.7,4.1-21.3,1.6s-8.8-6-9.1-11.5,3.3-10.2,8.3-12.4,8.1-2.3,12.3-2.1l7.2,1c.3-1.5.4-3.2.4-5.1l-.2-13.3c-8.2,0-16.1.3-24-1.3s-3.3-3.8-2.5-5.9,3.3-3,5.8-2.7l8,.8h12.6c0,0,.4-10.2.4-10.2,0-1.8,2.4-3.2,3.9-3.3s4,.7,4.7,2.5.5,4.4.5,6.6v4.6c0,0,11.5-1.1,11.5-1.1,2.6-.3,4.8.1,5.9,2.9s-.3,5.2-2.9,5.5l-14.2,1.5c-.6.9,0,2,0,3l-.2,18.2c5.3,1.8,9.8,4.2,14.7,6.5s4.1,4,2.9,6.7-4.4,3.6-7,1.9c-3.4-2.2-6.9-4-10.8-5.5-.6,4.8-2.9,8.5-6.7,11.2ZM52.6,411.8c3.2-1.3,4.7-4.6,4.4-7.8-6.3-2.8-18.2-2.3-18.4,3.4s8.2,6.8,14,4.4Z"/>
  <path class="st6" d="M295.8,414.8c4.7-2.3,9.1-5.1,11.3-10.5-5.9,1.7-12,.6-15.7-4.3s-3.5-9.7-1.1-14.4c3.2-6.1,11-8.3,17.5-6v-6.8c0,0-32.3-.1-32.3-.1-2.4,0-3.7-3.1-3.4-4.9.4-2.5,2.5-3.9,4.9-3.9h30.7s.3-8.8.3-8.8c0-1.9,2.9-3.1,4.7-2.9s4.2,1.5,4.2,3.7v8.1c.1,0,21.9,0,21.9,0,2.4,0,3.9,2.2,4.1,4.2s-1.4,4.5-3.7,4.5h-22.3c0,0,.2,14.6.2,14.6,0,3.6,1.5,6.8.9,10.4-.8,5.5-2.3,10.8-5.9,15.2-3.3,4-7.3,7.3-11.9,9.5s-4.7.6-6.1-1.5-.8-4.8,1.6-6ZM301.6,397.1c1.6.3,3.4.1,4.7-.9s1.8-2.4,1.9-4c.2-3.4-2.3-6-5.5-5.9s-5.3,2.7-5.2,5.8,1.5,4.4,4.1,5Z"/>
  <path class="st4" d="M463,420.3c-3.1-.6-5.3-2.2-4.9-5.3s3.1-4.5,6-3.6,3.6.8,5-.7v-15.7c0,0,0-15.4,0-15.4h-19.9c-2.3,0-4.1-.8-5-2.9s.2-4.4,2.2-5.6,3.7-.5,5.7-.6h7.6c1.6,0,2.9,0,4.5,0l5.2-.3c-.6-.9-.1-1.7-.2-2.4-.2-2.2-.5-4.2-.1-6.4s2.2-4.3,4.8-4.2,4.6,2,4.7,4.2l.2,9h11.6c1.4.1,2.4,0,3.8,0l4.7.2c2.5,0,3.8,2.1,3.8,4.5s-1.9,4.4-4.6,4.4h-19.8c.3.6.6,1.4.4,1.9-.8,1.6,0,2.8,0,4.2v26.9c0,2.7-1.7,5-3.8,6.4-3.7,2.4-7.6,2.1-11.9,1.3Z"/>
  <path class="st4" d="M387.1,421.2c-2.7,1.1-5.3-.2-6.3-2.5s.2-5,2.7-6l7.2-2.9c9.6-4.6,16.9-12.7,19.5-23.2h-39.9c-2.4,0-4-2.2-4.1-4.3s1.3-4.5,3.8-4.5h45.9c2.2,0,4.8,2.6,4.8,4.7-.2,14.5-13.2,30.3-27,36l-6.7,2.8Z"/>
  <path class="st5" d="M202,316.5c-1.8.9-4,.4-5.8-.1s-3.6.6-5.2.4c-3.3-.3-6.5-1.6-9.6-2.5s-7.4-1.8-11.3-2.5c-7.2-1.5-13.7-4.2-20.5-6.9l-38.7-4.9c-3.1-.4-5.9-.8-8.7-1.9l4.8-.3c-2.4-1.1-5-1.1-7.5-1.7s-.6-1.6-.3-2,1-1.2,1.8-1.1c2.8.4,5.4.1,8.2,0l6.2.9,16,2.1-9.7-6.3c4.7,1.4,9.1,1.6,13.7,2.5l10.1,4.6c2.3,1,4.6,1.5,7,2.4,3.7,1.6,7.8,1.5,11.8,1.8,3.4.2,6.7.9,10.2.4l-6.9-1.8,10.4-.2,4.6,1c2.6.6,7.8,1.1,8.1,3.5s-.5,2.3-1.6,2.3h-16.4c0,0,15.1,5.1,15.1,5.1l14.4,5.2ZM131.6,295.9l-.2.2.2.2.2-.2-.2-.2Z"/>
  <path class="st5" d="M211.6,301.5l10,2.4c1.8.4,3.5.8,3.9,2.8s-1.1,3.5-2.9,3.4c-4.1-.3-8.1-1.3-12.3-2.6-23.3-6.8-45.9-14.7-68.2-24.4l-24.1-12.1c-.9-.5-1.3-1.8-1.3-2.5s.7-2.2,1.8-2.2,2.4,0,3.7-1c12.7,7.2,25.5,13.3,39.1,18.5,12.8,4.9,25.4,9.5,38.5,13.5s9.3-.6,13.7,1.8c1.7.9,3.5.9,5.2,2.5l-6.2-.6c-.4,0-.6,0-.8.4Z"/>
  <path class="st5" d="M96.8,282.5c-5.7-1.5-10.9-3.2-16.3-5.1s-.9-1.1-.5-1.4c2.9,1.3,5.7,2.5,8.9,2.3-2.7-3-8.2-3-9.8-4.8s.3-1.7.8-2,1.7-.8,2.6-.4l22.3,6.4c-10.2-10-17.9-20.6-23.8-32.9s-1.5-4,.6-5.5,2.6-.8,3.9-.2,1.6,1.6,2.2,3c7,16.1,18.9,28.9,32.8,39.7l21.6,3.8c1.6.3,2.6,2.5,2.3,3.6-.5,1.7-2,2.6-3.6,2.3l-20.9-3.4c-6.9-1.1-13.2-3.6-19.8-5.7s-2-.4-3,.3ZM104.6,277.5h-.3s.3,0,.3,0h.5s-.3,0-.3,0h-.3Z"/>
  <path class="st5" d="M374.7,291l5.6-5.3-9.6,1.2c-1.4.2-2.9-.8-3.1-2.3s.9-3.6,2.5-3.8l17.9-2.7c-.1,1.1-.4,2,0,2.9s1.3,1.1,2.3.8,1.9-2.3,1.6-3.7-.9-.5-1.8-.8l11.9-12.5c7-8.2,12.9-17,18.7-26s3-1.5,4.3-1,2.5,2.7,1.5,4.4c-6.2,10.7-13.7,20.4-22,29.6s-2.2,1.6-3,3.1l13.3-4.4c2.3-.8,4.3-1.7,6.4-2.9s3.5-.4,4.3,1,.7,3.6-1,4.5c-10.2,5.3-21.2,8.6-32.6,11l-6.3,5.5-10.8,1.7Z"/>
  <path class="st6" d="M143.8,394.1c.2-.1.5-.4.5-.6-8.3-3.3-20.9-.1-30,2.1-1.3.3-2.8.2-3.8-.7s-1.1-2.5-.7-3.8,1.1-2.1,2.4-2.3l17.9-3.1-.2-.8c6.8-.8,13.8-.4,19.8,2.7,8.6,4.4,10.4,15.2,5.7,21.9s-6.1,6.3-10.1,8c-5.7,2.3-11.5,3.8-17.6,3.6s-3.6-2.3-3.6-4.3,1.5-3.9,3.8-4.1c4.3-.4,8.7-.6,12.7-2.2,6.1-2.5,10-7.4,7.7-12.4s-2.3-3.4-4.5-3.8Z"/>
  <path class="st6" d="M200,418.9c-2.7-1.2-4.5-3.4-3.6-6.1s4-4.3,6.7-2.8,6.9,3.3,10.7,1.9c3-1.1,4.7-3.6,4.2-6.9s-2-5.3-4.2-7.1l-5.7-4.8c-2.6-2.2-4.1-5.1-3.9-8.6s1.8-4.4,4-4.8,2.8,0,3.9.8c2.6,2.1.2,4.7,3.4,7.4l5.5,4.6c2.9,2.4,5,5.9,6,9.6,2.1,7.2-.8,14.5-7.6,17.5s-13,2.3-19.4-.6Z"/>
  <path class="st5" d="M155.3,265.4c1.9.7,2.7,2.3,2.7,4s-1.6,3.4-3.3,2.9c-9-2.6-17.3-6.3-25.7-10.6-11.7-6.1-21.5-14.5-29.7-24.8s-2-3.8-.2-5.5,4.2-1.1,5.7.8c12.9,17,30.5,26.4,50.6,33.2Z"/>
  <path class="st1" d="M96.5,366.4c-4.1,1.4-8.4.8-12-1.7-3-2.1-5.2-5.9-5.2-10.1s2.2-7.7,5-9.9,7.7-3.2,11.9-2.1c5.3,1.5,8.9,6.2,9.1,11.4s-3.1,10.5-8.8,12.4ZM91.6,359.5c3.6.3,6.2-2.5,5.7-5.7s-3.6-5-6.6-4-3.9,3-3.7,5.4,2,4.1,4.6,4.3Z"/>
  <path class="st5" d="M358.3,279.4c-2.1.8-3.8.7-4.8-.8s-.8-4.2,1-4.9c14.8-5.9,28.5-13.8,41-23.9l2.8-1.8c1.6-1,2.6-2.9,4.5-3.4s3.4.4,4,1.7.4,3.4-1.1,4.5l-17.6,13c-9.5,6.2-19.1,11.3-29.8,15.6Z"/>
  <path class="st1" d="M257.2,351.4c-.3.3-.3.9,0,1.4,2.2,3.2,2.5,6.9.9,10.5l-.2,1.1c0,.1.2.2.5.3-2.2,3.9-6,6.3-10.2,6.7s-8.6-1.3-11.4-4.7-3.5-10.8,0-15c2.7-3.3,6.4-5.1,10.4-5s7.4,1.7,10,4.8ZM248.1,363.8c3.5-.5,4.7-4.2,3.4-7s-4.9-3.5-7.5-1.7-2.6,4-1.6,6,3.1,3.1,5.7,2.7Z"/>
  <path class="st4" d="M414.6,366.3c0,1.4-1.9,3.1-3.4,3.1h-35.1c-1.5,0-2.6-1.7-3-2.6s-.4-3.4.4-4.4c1.6-1.9,3-2.2,5.3-2.2h30.3c2.3,0,4.9.4,5.3,3.1v3Z"/>
  <path class="st5" d="M388.2,311.4c-1.9.7-3.8,0-4.5-1.5s-.4-3.7,1.3-4.4c9.5-3.8,18.7-8.4,27.2-14.3s3.8.3,4.3,1.5.5,3.6-1,4.6c-8.5,5.7-17.5,10.4-27.3,14Z"/>
  <path class="st4" d="M439.4,406.9c-.5-1.3-.1-3.3.9-4.3,3.7-3.9,7.5-7.6,10.4-12.2,1.4-2.3,3.7-3.4,6.4-2.4s4.2,4.3,2.4,6.4l-11.4,13.5c-1.2,1.4-2.7,2.3-4.6,2.1s-3.1-1-4-3Z"/>
  <path class="st4" d="M506.3,402.4c1.9,2.2.7,5.5-1.3,6.8s-4.7.3-6.6-1.9l-11.1-13.1c-1.6-1.9,0-4.6,1.5-5.8s4.3-1.6,5.9.3l11.5,13.7Z"/>
  <path class="st6" d="M222.2,365.6c2.3,1,3.4,3.7,2.7,5.9s-3.5,4.4-5.9,3c-5.2-3.1-10.3-6-16.2-7.6-2.1-.6-3.7-2.7-3.3-4.9s3.9-4.4,6.6-3.2l16.2,6.9Z"/>
  <path class="st6" d="M247.6,412.4c-2.5-1.3-5.9-8.2-11.5-13.3s-3.3-4.2-1.6-6.8,4.7-3,6.9-.8c4.4,4.3,8.4,9.1,12,14.1s.8,4.2-.4,5.6-3.3,2.4-5.4,1.2Z"/>
  <path class="st6" d="M183,412.1c-1.6,1.8-4.4,1.2-6-.2s-2.1-4.1-.5-5.9c3.9-4.1,7.7-8.1,11.2-12.6s5.1-1.8,6.7-.2,1.4,5-.6,7.1l-10.8,11.7Z"/>
  <path class="st3" d="M82.4,459.2c4.6-1.1,6.6-2.5,6.7-7.2s-2.1-5.2-5.3-5.5c-.7,5.3-3.2,14.8-8.1,13.5-2.2-.6-3.4-3-3.5-5.3-.4-6.5,5.4-11.4,11.9-10.6s6.3,2.3,7.4,5,1,6.8-1.3,9.3-3.4,3.4-5.9,3.2-1.6-1.5-1.8-2.4ZM80.9,446.6c-4.5.6-7.2,5.3-5.8,9.4s1,1.2,1.5,1.2c2,0,4-6.6,4.3-10.6ZM89,458c.3-.6-.5-.9-.7-.7l-3.1,2.6c1.4.3,3.3-.6,3.9-1.9Z"/>
  <path class="st3" d="M444.9,457c.1-1.1.3-2.5-.3-3.2-3.2-3.2-8.2-.4-11.7,3-.9-.6-1.5-1.2-2.1-2l5.7-5.3,3.7-4-6,.7c-.3-1-.6-1.7-.6-2.8l9.2-1c1,.6,1.8,1.5,2.1,2.4l-5.9,5.5c2.8-.4,5.2-.5,7.2,1.1s2.3,3.6,1.8,5.7c-1.1,4.3-6.5,6-10.8,4.6s-2.6-2.4-2.1-3.7c.6-1.8,2-2.6,3.8-2.6s3.1,1.3,4,3.2c.4.6,2-.5,2.2-1.7ZM432.5,455.9c1.1-.9,2.2-1.4,2.7-2.7-1.4-.2-2.2.8-3.1,1.6s.1,1.3.4,1.1ZM440.3,460c.3-1-.4-1.8-1.1-2.2s-1.9-.3-2,.7,2,1.8,3.2,1.4Z"/>
  <path class="st3" d="M20.8,462.8c-2.2-.8-4-1.9-5.9-3.3l-5,2.7c-.6.4-1.5.8-2.1.4s-.9-1-1.3-2c2.3-.7,4.2-1.6,6.4-3.1-1.6-1.5-2.3-3.2-3-5.1-.4-.3-1.2-.5-1.3-.9s-.3-1.9.3-1.9c1.7,0,3,.2,4.5-.2.2-1,.2-2-.2-2.8-1.6.5-3.3.7-4.6,0s-.4-1.7,0-2.3c1.7,0,3.2.1,4.9-.3v-3c1.1-.2,1.9-.1,2.8.4-.3.6-.7,2.1-.2,2.6,1.6.9,3.8,0,5.5.2.6.2.6,2.4,0,2.5-1.8.4-3.8.3-5.5-.3-.3,1.1-.3,1.9,0,3h3.4c.5.2,1,.8,1.1,1.1.3.6-1.8,5-4,6.9l6,2.7c-.3,1.1-.8,1.7-1.6,2.5ZM17.4,452.1h-5.5c.5,1.6,1.3,2.8,2.6,4.2,1.4-1.3,2.1-2.6,2.9-4.2Z"/>
  <path class="st3" d="M22.4,360.7c.3-1.2.5-2.3,0-3.3-.5-1.3-1.1-2.3-2.3-2.8-2.6-1-6.2,0-6.8,2.2l-2.7,10.3c-3.3,12.4-4,31.7-.4,43.8l2.3,7.8c.8,2.6,3.8,3.3,6,2.6,2.2-.7,4.4-3.1,3.5-5.8-5.9-16.8-5.5-32.7-1-49.7l1.4-5.1ZM15,420.2c1.2-.2,2.1-.3,3.7,0-1.2.7-2.4.7-3.7,0Z"/>
  <path class="st3" d="M150.6,455c.8-.2,1.4-.2,2.2.3-.1-.8-.1-2,.5-2.3l6.2-2.6v-.7s-5.5,2.1-5.5,2.1c-1.3.5-1.9.3-2.9,1.3s-2.5,1-2.8,2.4l1.8-.4c-.6,1.3-2.2,1.8-1.6,3.4.9,2.6,8.6.2,9.4.7s.4,2,.1,2.5-5.9.9-9.1.2-3.8-2.4-3.1-4.5c1.1-3.9,5.4-4.2,5-5.6s-4.6.1-6.9,3.4c-.9-.2-1.6-.8-2.1-1.7,1.9-1.9,3.6-3.7,5-6h-4c0,0-.3-2.4-.3-2.4l5.4-.2c.6-1.2.9-2.4,1.1-3.6,1.2,0,2,.3,2.9.9-.3.8-.8,1.1-1,2.2l4.2-.7c.6.5.6,2.5-.1,2.6l-5,.7c-.8.1-1.4,1.1-1.5,2.2,2.2-.9,3.7,0,4.9,1.6l5.5-2.4c.8,0,1.7,1.6,1.7,2.6l-6.9,2.7-.2,4.3-2.5.2c.3-1.5.3-2.6-.5-3.3ZM147.8,456l-.2.2.2.2.2-.2-.2-.2ZM147.6,457.7c0-.2-.2-.5-.5-.5s-.5.2-.5.5.2.5.5.5.5-.2.5-.5ZM157.3,460.7c-2-.6-3.4.4-4.8.2l-4.7-.6c1.7,1.5,3.7.9,5.5,1s2.9.2,4-.6Z"/>
  <path class="st6" d="M124.4,456.8c.8-1.3.4-3.2,0-4.4-.4.4-.7.7-.9.8-.4.1-.5-.2-.7-.6l-1.8-3.1v13.1c-.1.8-2,1-2.7.5v-20.5c0,0,9.1-.2,9.1-.2v11.7c0,1.7.4,3.8-.9,5.1s-3,.8-4,.3c-.5-.4-.9-1.6-.7-2.2s1.9-.3,2.6-.5ZM122.2,447.4l2.6,4.3v-7.4c.1,0-4.3.4-4.3.4l.2,3.2,1.5-.5Z"/>
  <path class="st1" d="M519.9,349.4c-.2,2.9-2.2,4.7-4.3,5.5s-5.2.5-7-1.5-2-5.2-.5-7.6,4.3-3.5,7.2-2.6,4.8,3.1,4.5,6.3Z"/>
  <path class="st3" d="M379.7,459s0-.5-.1-.5l-9.8.2c.4,1.4.1,2.7,0,4.2l-2.5.3v-12.7s15,0,15,0v10.5c0,1.7-2.3,2.2-3.6,1.9s-2-.8-2-2.5c2.3-.5,3.6,0,3.2-1.4ZM379.8,453.9c.3-1,0-1.1-.2-1.3s-.5-.2-.8-.1h-8.9c-.4.1-.4,1-.2,1.2s.6.4,1,.4l9-.2ZM379.5,456.8c.5,0,.4-1.1-.2-1.1h-9.7s0,1.3,0,1.3h9.9Z"/>
  <path class="st6" d="M48.1,442.7v.8c0,0,0,.1,0,.2-.4.7-.5,1.6-.3,2.6h2.7s0,1.8,0,1.8h-2.7c0,0-.2,14.3-.2,14.3-.7.1-1.3.1-2,0v-14.5s-3.3,0-3.3,0c-.4,0-.8.2-.8.4.1.7-.9,1.5-1.1,2.1l-.2,12.4c-.8.2-1.5.2-2.4,0v-9.3s-1.6,1.4-1.6,1.4l-.9-2.8c2.1-1.6,3.5-3.6,4.7-5.8,1,.6,1.5,0,2.4-.1l2.5-.4c.5-1.2.2-2.4.1-3.6s.9-1.1,1.7-1.1,1.1.6,1.1,1.5Z"/>
  <path class="st3" d="M379.5,448.8l-6.3.5-6.5.3c-.6,0-1.1,0-1.3-.5s-.3-1.2,0-1.6c.5-.7,4.1.9,5.1-2.3-2.2-.3-4.2-.2-6.3,0-.2-.8-.2-1.3,0-2.2h9.1c0-.7,0-1.7.3-1.9s1.3-.2,1.9-.1.7,1.1.6,2h9.3c0,.7.1,1.3,0,2h-5c0,.1,4.1,3.8,4.1,3.8.1.6-.9,1.4-1.6,1.6-.7-1.3-1.7-1.8-3.4-1.7ZM378.8,447.2c-.2-.8-.8-.8-1-1.1s0-.6,0-1h-4.5c-.6.9-1.2,1.4-1.5,2.3l6.9-.3Z"/>
  <path class="st3" d="M414,462c-3.3-.2-6.5-1.4-7.9-4.5s-.2-7.7,2.9-10.3c-3.3-.3-6,1.3-9.2,1.5s-1.3-2.2-1-3l8.8-1.2,9.1-1.4c.6.9.9,1.8.8,2.6-1.2.7-2.4.6-3.6,1-3.2,1-5.7,4.2-5.8,7.5s3.3,4.6,6.9,4.9c0,1.1-.3,1.9-1.1,3ZM412.2,446.7l3-2-7.3.9c2.4.3,2.2,2.5,4.4,1ZM406.8,446.2c-.2-.3-.4-.4-.7-.3l-6.6.8.3.8,6.9-1.3Z"/>
  <path class="st3" d="M112.5,442.7c-1.2.5-2.5.9-4.1.7v11.6c0,0,1.4-.2,1.4-.2.4,0,.1-.7.1-1.2v-8.8c-.7.7-.1,1.6-.7,2.7-.6-1.3-.3-2.4-.4-3.7,2.3,1.9,4.2-.2,7.5-.5.2-.2.1-.9,0-1.1.4,0,1.2.9.8,1l-6.3,2c-.8.2-.8,1.9-.3,2.3.5-.4,1.3-.8,1.5-.6,1.1.9,1.3,2.3,1.6,3.5.9-1.5.2-3,.3-4.5s1.5-.8,2.5-.3l-.4,9.7c-.6,4-3.6,6.8-7.3,7.6-.8-.7-1.2-1.2-1.7-2,2.6-.7,5.8-2.2,5.9-4.8l-6.4,1.7c-.5-.7-.7-1.5-.6-2.5.4,0,1.6-.3,1.6-.7v-11.7c1.8.1,3.2-.1,4.6-.4ZM113.8,451.2l-1.8.7c-.3-1.4-.4-2.7-1.5-3.7v6.6c0,0,3.2-1.2,3.2-1.2.8-.3.4-2.1.1-2.4Z"/>
  <path class="st3" d="M313.7,459.3c.6.6-.4,2-1,2.4l-4.2-2.6c-.1,1.8-1,2.6-2.4,3s-3,.4-4.6-.5-1.2-1.8-1-2.9c.5-2,3-2.9,5.5-2.3l-.2-4.5c0-1.9.2-3.6-.5-5.4,1.3-.4,2.3-.2,3.2.5-.4,1-.8,2.3-.3,3.2s3-.8,4.3-.2.7,1.5.2,1.9c-1.1,1-2.7.8-4.6.8l.3,4c1.7.9,3.5,1.1,5.2,2.5ZM306.1,458.4c-1-.6-3.4-.2-3.5.8s2.1,1.3,2.9,1,1.2-1.4.6-1.8Z"/>
  <path class="st4" d="M493.6,363.3c-1.4-.9-1.9-2.3-2.1-3.8s.7-2.9,2-4.1c1.9-1.8,5.1-1.6,6.8,0s2.2,4.8.6,6.7c-1.8,2.2-4.5,2.7-7.3,1.1Z"/>
  <path class="st3" d="M274.6,458.9c2.6,1.7,7.1-1.1,9.7-4.2.8.9,1,1.6,1.5,2.7-2.9,3.4-7.3,5.6-11.9,4.5s-3.1-2.9-3-5l.5-8.9c0-1.9,0-3.8-.2-5.6,1.2-.1,2.3-.2,3.7.1l-.5,5.2-.3,7.1c0,1.2-.8,3.2.6,4.1ZM272.1,459.9c3.2,1.9,6.8,1.5,9.6-.4s2.4-1,3.1-2.4-.5-1.1-.8-1c-1.5,1.6-3.3,3.2-5.4,3.9s-4.2.2-5.4-1.6c-.6.4-1,.6-1.1,1.4Z"/>
  <path class="st3" d="M2.6,463c-1.2,0-1.7-.1-1.9-.9s-.5-1.5.2-1.8c.5,0,2,.4,2.2-.3.5-1.7.1-3.5.1-5.2-1.1,0-1.7.4-2.8.7-.3-.6-.7-1.8-.2-2.6l2.9-1c.4-1.3.3-2.6,0-4-.9,0-1.7.2-2.6-.2s-.6-1.8,0-2c.9-.4,1.8-.2,2.7,0v-4.2c.3-.7,2.5-.5,2.6.2.1,1.2-.6,2.5,0,3.9l1.8.3c0,.7,0,1.2-.2,1.6-.2.5-1.2.6-1.6.7-.3.8-.3,1.8,0,2.7.1.4,1.2,0,1.5-.4.5.5.7,1.5.7,2.4l-2.4.9v6.8c0,1.7-1.1,2.6-3,2.5ZM4.6,460l.2-6.7c-1.1-.3-2.1-.4-3,.3.9,0,2.2,0,2.3.7l.5,5.8ZM1.6,461.4c1,.6,2.8.6,2.9-1-1,.5-1.8.8-2.9,1Z"/>
  <path class="st6" d="M461.9,448.3c-.1.3.2.4.6.4h11.4c.5,0,.8-.1.9-.4h.4c.3,0,.7,0,.8,0,.5.5,1.2,1,1.4,1.4.2.7-.4,1.3-.6,1.9-1.9,4.8-5.3,8.6-10.2,10.4-.9-.1-1.9-1-2.4-2,4.3-1.4,7.5-4.1,9.2-8.1.4,0,.6-.5.6-.9s.1-.9-.5-.4c0,.2-.4.2-.4,0-3.9-.9-8,.5-12.1,0v-2.4s.9,0,.9,0Z"/>
  <path class="st3" d="M247.6,457.7c1.4-.4,2.3-1.5,2.6-2.4s0-2.7-1-3.3c-1.8-.8-3.8-.3-5.5.3l-4.9,1.7c-.9,0-1.7-1.7-1.7-2.6l9.5-2.2c1.9-.4,4.4.5,5.5,2.1,1.6,2.4.9,5.6-1.3,7.4-1.9,1.5-4.2,2.3-6.6,2.8-.8-.7-1.2-1.3-1.8-2.3l5.1-1.5ZM245,450.4c-.8-.3-1,.6,0,.5.4.1.6-.4,0-.5ZM240.7,452.1l3.2-1.3-5.7,1.3c.9.5,1.8.3,2.6,0Z"/>
  <path class="st3" d="M336.5,454.5c.8,1.7-1.9,3.6-1.4,6.8-.9.4-1.7.6-2.8.7-1.3-2.9-1.7-6.1-1.2-9.3l1.5-9.9,3.3,1.1c-1.6,3.8-2.4,7.9-1.8,12.2.7-.6.8-1.6,1.2-2.4.6-.3,1.1.5,1.3.9Z"/>
  <path class="st3" d="M209.8,454.5c.7.2,2.2,1.2,2.1,2.3-.2,1.7-1.7,3.7-3.2,4.3-2.9,1.2-5.7-3.2-5.9-8.4l-.2-8.2c1.1-.1,2.2,0,3.2.7-.6,4.1-.6,10.9,1.3,12.6s1.1.4,1.3-.1l1.4-3.2Z"/>
  <path class="st3" d="M507.5,449.3l-.4-.2c-1.6-1-4.5,0-7.4-.7-.2,1.8-.6,3-1.4,4.2l-.2-3c0-.3-.4-.4-.5-.4s-.2,0-.3.2l-7.7.2c-.5-.8-.4-1.8-.2-2.8h8c0,0,0-4.5,0-4.5,1.2,0,2.1.2,3.2.5-.3,1.4-.4,2.6-.2,4h7.3c.5.5.4,1.9,0,2.6Z"/>
  <path class="st3" d="M129.9,384.8l.2.8-17.9,3.1c-1.4.2-2.2,1.4-2.4,2.3-.4,1.4-.4,2.8.7,3.8s2.5,1.1,3.8.7c9.1-2.3,21.7-5.4,30-2.1,0,.2-.2.5-.5.6l-5.1-.9c-2.2-.4-4,0-6.1,0-6.4.3-12.4,1.9-18.6,3.3s-4.8-.9-5.4-3.3.4-4.4,2.7-5.1c6-1.8,12.2-2.7,18.6-3.4Z"/>
  <path class="st6" d="M57.1,450c-.3,0-1.3-.1-1.3.3v9c0,1,0,1.8-.5,2.4-1,1.1-4,1.1-4.4.4s-.5-1.2-.5-2h2.7c.1,0,.4-.1.4-.5v-9.8c-1,.2-1.7.2-2.2.1s-.6-.7-.3-1.2c-.1-.2,0-.9.5-.9h5.6s0,2,0,2Z"/>
  <path class="st3" d="M349,460.1c-2.2.6-4.4.4-6.5.3s-5.4-3.9-4-5.4,1.2-.3,1.7-.2.5,1.5.9,1.8c2.2,1.7,5.2.9,7.9.5.6.4.7,2.8,0,3Z"/>
  <path class="st6" d="M507.1,449.2h-7.3s.1,10.9.1,10.9c0,1.8-3.7,2.7-4.9,1.8s-1-1.7-1-2.1c0-.9,2.3.2,3.5-1.2s.6-3.8,0-4.9v-4.2c0-.1.1-.2.2-.2s.5.2.5.4l.2,3c.8-1.2,1.1-2.3,1.4-4.2,2.9.8,5.8-.3,7.4.7Z"/>
  <path class="st3" d="M221.9,455.1c0,.8-2.3,1.7-2.8,1-.8-2.9-1.8-6-4.3-8,.3-.9,1.5-1.6,2.4-1.5,2.2,2.2,4.1,4.9,4.7,8.4Z"/>
  <path class="st3" d="M475.1,445.5h-12s0-2.6,0-2.6h11.8c.4.9.4,1.7.2,2.6Z"/>
  <path class="st3" d="M339.3,448c-.5-.9-.2-1.7-.2-2.6,1.3-.3,2.5,0,3.8,0l5.4-.4c.6.6.6,2.8-.1,2.8l-8.8.2Z"/>
  <path class="st6" d="M116.4,442.3c0,.2.1.9,0,1.1-3.3.3-5.2,2.3-7.5.5,0,1.4-.2,2.5.4,3.7.6-1.1,0-2,.7-2.7v8.8c0,.4.3,1.1-.1,1.2l-1.4.2v-11.6c1.6.2,2.8-.2,4-.7l2.6-1.1c.4-.2.7-.2,1,0s.3.5.4.7Z"/>
  <path class="st3" d="M216.8,278.6c-2.5-3.1-4.3-6.6-5.9-10.5-3.2-7.9-3.8-16.3-3.3-24.8v-2.1c1,1.3.8,2.5.7,4.1-.5,7.5.9,14.7,3,21.9l3,6c.4-.2.4-.4.5-.5.2-.4.6-.5.8-.2.8.9-.9,2.1.6,4s.9,1.3.6,2.1Z"/>
  <path class="st3" d="M182.2,461c.5.7-1.5,2.4-2.1,1.8-1.5-1.7-2.9-3.7-4.8-4.9-.3-.8,1.4-2.2,2.1-1.8,1.9,1.1,3.4,2.8,4.8,4.9Z"/>
  <path class="st3" d="M491.3,458.9c-1.2,0-2-.6-3-1.2,2-2,3.2-4,4.2-6.5,1.1.2,1.9.9,2.5,1.6l-3.7,6.1Z"/>
  <path class="st3" d="M508.7,457c-.1.9-1.5,1.6-2.3,1.8-1.3-2.1-2.4-4.1-4.2-5.9.4-.7,1.5-1.6,2.2-1.4,1.8,1.3,3,3.6,4.2,5.5Z"/>
  <path class="st3" d="M43.3,450.4l1.8.8c-.7,2.9-1,5.9-2.3,8.8-.7,0-1.7-.5-1.9-1.1,1-2.2,1-4.7,1.4-7l.2-1.2c0-.2.4-.3.7-.3Z"/>
  <path class="st3" d="M39.3,445.9c-.5.6-1.5,1.3-2.2,1.6-.6-.1-1-1.2-1.1-2,1.7-1,2.7-2.6,4-4.2s2.4.9,1.9,1.5l-2.6,3.1Z"/>
  <path class="st3" d="M50.9,452.4l1.1,4.9c-.6.5-1.3.9-2.3,1-.2-2.3-.6-4.6-1.3-6.7,0-.6.8-.9,1.6-1.1.4.5.8,1.3.9,2Z"/>
  <path class="st6" d="M150.6,455l-.6.2-1.8.4c.3-1.4,2-1.6,2.8-2.4s1.7-.8,2.9-1.3l5.5-2.1v.7s-6.2,2.6-6.2,2.6c-.6.3-.6,1.5-.5,2.3-.8-.5-1.4-.5-2.2-.3Z"/>
  <path class="st1" d="M258.5,364.7c-.3-.2-.5-.2-.5-.3l.2-1.1c1.6-3.6,1.2-7.3-.9-10.5s-.3-1.1,0-1.4c3.2,3.7,3.6,9,1.3,13.3Z"/>
  <path class="st6" d="M51.8,444.8c.1-.7.3-1.5-.1-2.1h5.1c.4.5.3,1.9-.2,2.2h-4.8Z"/>
  <path class="st5" d="M336.1,294.3l-7.3,1.2c0-1.1.8-1.3,1.7-1.4l5.6.2Z"/>
  <path class="st3" d="M51.7,442.6c.4.7.3,1.4.1,2.1l-2.4.7c-.3-1-.7-1.7-1.4-2v-.8c.5-.4,1.2-1,1.7-.7s1.1,1,1.4,1.9l.6-1.3Z"/>
  <path class="st3" d="M505.4,445.9c-1-2.1-2.6-2.8-2-3.5s.9-.7,1.2-.4l2.6,2.9-1.8,1Z"/>
  <path class="st3" d="M507.9,444.3l-2.3-2.5c0-.5,1.1-1.3,1.7-.8.8.7,1.6,1.6,2,2.6s-1.1,1.1-1.4.7Z"/>
  <path class="st3" d="M57.1,450v-2.1c0,0-5.7,0-5.7,0-.4,0-.6.7-.5.9-.1-.2-.3-.5-.3-.7v-1.8s-2.8,0-2.8,0c-.2-1-.1-1.9.3-2.6v2.2c.1,0,2.8,0,2.8,0,0,.7.1,1.2.4,1.6h5.7c.8,0,.8.8.9,1.3s-.2,1.2-.8,1.1Z"/>
  <polygon class="st4" points="507.1 449.2 507.5 449.3 500.2 449.6 499.9 460 499.8 449.2 507.1 449.2"/>
  <path class="st3" d="M266,295.5c-5.2.7-10.9.7-16.1,0h16.1Z"/>
  <path class="st3" d="M473.1,450.6c-3.8-.2-7.9,1.1-12,.4s-.7-2.4,0-2.7v2.4c4.1.4,8.2-1,12.1,0Z"/>
  <path class="st4" d="M303.2,251.4v-14.1c.1,0,.5,13.3.5,13.3,0,.4-.3.8-.5.8Z"/>
  <path class="st3" d="M474.8,448.4c-.1.3-.4.4-.9.4h-11.4c-.5,0-.8-.2-.6-.4h12.9Z"/>
  <path class="st3" d="M497.4,458.5v-4.9c.6,1.1.6,4.1,0,4.9Z"/>
  <path class="st3" d="M473.4,452v-1.3c.7-.5.6.2.6.4,0,.4-.2.9-.6.9Z"/>
  <path class="st3" d="M476.1,448.4c-.2-.1-.5,0-.8,0-.2-.2,0-.4.1-.4.3,0,.5,0,.7.5Z"/>
  <path class="st0" d="M272.6,193.6c5.1,3.6,8.9,8.3,12.1,13.7l4.5,9.2c6.6,17.2,8.3,41-2.5,56.4s-11.1,11-18.6,13.1-7.6,1.3-11.7,1.5c-6.4.3-12.4-1.4-18.2-3.9s-12.6-8.3-16.2-15-6.4-21.6-3.9-31.7l2.5-9.8c2.2-6.5,4.7-12.7,8.4-18.5s6.5-9.2,11-12.9c10.1-8.2,22-10.1,32.8-2.4ZM259.5,277.2c2.7.9,5.1-.1,7.4-1.1,10.5-4.3,17-15.3,18.1-26.3s-1.8-4.3-3.8-4.5-4.3,1-4.8,3.5c-.7,4-1.6,7.8-3.6,11.3-2.9,5.3-7.7,8.6-13.6,9.5s-2.3,2.6-2.3,3.7.8,3.2,2.6,3.8Z"/>
  <path class="st3" d="M228.9,208.8c-3.7,5.8-6.1,12-8.4,18.5l-2.5,9.8c-2.5,10-1.2,22.4,3.9,31.7,0,.2-.4.3-.5.3-.9-.2-3.8-8.4-4.7-12.3-1,.4-1.6,0-1.6-.7s.2-1.4,1.3-1.5c-2.1-14.7,3.6-32,11.1-44.8s.6-.8.8-1,.5.2.6.1Z"/>
  <path class="st3" d="M286.6,273c10.8-15.5,9.2-39.2,2.5-56.4.2-.3.6-.3.8-.1s.2.4.3.7c2.5,6.7,4.3,13.5,4.7,20.7v13.5c-.6,7.6-3,14.8-7.1,21.1-.2.3-.5.7-.6.7s-.5-.2-.7-.2Z"/>
  <path class="st3" d="M272.6,193.6c-10.8-7.7-22.7-5.8-32.8,2.4-.3,0-.6-.6-.2-.9,4.3-3.4,9.2-6.2,14.8-7h7.1c4.3,0,7.9,2.5,11.3,4.8-.1.4-.3.5-.3.7Z"/>
  <path class="st3" d="M268,286.1c.1.4-.1.9-.6,1-9.3,2.6-18.9,1.8-27.8-2s-1.6-.3-1.5-1.4c5.8,2.5,11.8,4.2,18.2,3.9s7.7-.4,11.7-1.5Z"/>
  <path class="st0" d="M301.6,397.1c-2.6-.5-4-2.3-4.1-5s2.1-5.7,5.2-5.8,5.7,2.5,5.5,5.9-.9,3.1-1.9,4-3.1,1.3-4.7.9Z"/>
  <rect class="st0" x="131.5" y="296" width=".3" height=".3" transform="translate(-170.8 179.8) rotate(-45)"/>
  <polygon class="st0" points="104.6 277.5 104.9 277.5 105.1 277.5 104.9 277.5 104.6 277.5 104.3 277.5 104.6 277.5"/>
  <path class="st6" d="M89,458c-.6,1.3-2.5,2.2-3.9,1.9l3.1-2.6c.3-.2,1,0,.7.7Z"/>
  <path class="st6" d="M432.5,455.9c-.3.2-.9-.7-.4-1.1.9-.8,1.7-1.8,3.1-1.6-.5,1.3-1.6,1.8-2.7,2.7Z"/>
  <path class="st6" d="M18.7,420.2c-1.2.7-2.4.7-3.7,0,1.2-.2,2.1-.3,3.7,0Z"/>
  <path class="st6" d="M157.3,460.7c-1.1.8-2.5.7-4,.6s-3.8.5-5.5-1l4.7.6c1.5.2,2.8-.8,4.8-.2Z"/>
  <circle class="st6" cx="147.2" cy="457.7" r=".5"/>
  <rect class="st6" x="147.6" y="456.1" width=".3" height=".3" transform="translate(-279.3 238.1) rotate(-45)"/>
  <path class="st6" d="M412.2,446.7c-2.2,1.5-2-.7-4.4-1l7.3-.9-3,2Z"/>
  <path class="st6" d="M406.8,446.2l-6.9,1.3-.3-.8,6.6-.8c.3,0,.5,0,.7.3Z"/>
  <path class="st6" d="M272.1,459.9c.1-.8.6-1,1.1-1.4,1.2,1.8,3.2,2.3,5.4,1.6s4-2.2,5.4-3.9c.4,0,1,.7.8,1-.7,1.3-2,1.7-3.1,2.4-2.9,1.8-6.5,2.3-9.6.4Z"/>
  <path class="st6" d="M4.6,460l-.5-5.8c0-.7-1.4-.6-2.3-.7.8-.6,1.8-.5,3-.3l-.2,6.7Z"/>
  <path class="st6" d="M1.6,461.4c1.1-.2,1.9-.4,2.9-1-.2,1.6-1.9,1.5-2.9,1Z"/>
  <path class="st6" d="M240.7,452.1c-.7.3-1.7.5-2.6,0l5.7-1.3-3.2,1.3Z"/>
  <path class="st6" d="M245,450.4c.5,0,.4.6,0,.5-.9.1-.7-.8,0-.5Z"/>
  <path class="st1" d="M259.5,277.2c-1.8-.6-2.6-2.2-2.6-3.8s.7-3.5,2.3-3.7c5.9-.9,10.7-4.2,13.6-9.5s2.9-7.4,3.6-11.3,2.6-3.7,4.8-3.5,4,2,3.8,4.5c-1.1,11.1-7.6,22-18.1,26.3s-4.7,2-7.4,1.1Z"/>
</svg>