<?xml version="1.0" encoding="UTF-8"?>
<svg id="_レイヤー_1" data-name="レイヤー_1" xmlns="http://www.w3.org/2000/svg" version="1.1" viewBox="0 0 1131.6 1054.1">
  <!-- Generator: Adobe Illustrator 30.5.1, SVG Export Plug-In . SVG Version: 2.1.4 Build 3)  -->
  <defs>
    <style>
      .st0 {
        fill: #55698f;
      }

      .st1 {
        fill: #fbfcfd;
      }

      .st2 {
        fill: #f2f7fc;
      }

      .st3 {
        fill: #f5f8fd;
      }

      .st4 {
        fill: none;
      }

      .st5 {
        fill: #78b3f7;
      }

      .st6 {
        fill: #6ccfd2;
      }

      .st7 {
        fill: #70adf5;
      }

      .st8 {
        fill: #66cdca;
      }

      .st9 {
        fill: #fef0db;
      }

      .st10 {
        fill: #72b1f4;
      }
    </style>
  </defs>
  <g>
    <path class="st1" d="M723.7,669.8c-.8.5-1.5,1-2.1,1.9-3.7,2-7.9,3.9-10.4,7.4-18.6,10.8-37.2,20.6-58.5,28.8l-122.5,291.6c-9.8,23.4,5.7,46.3,28.4,51.3,13.7,3,26.2,2.9,40.1,2.5l45.1-1.3c23.1-3.1,44.5-15.3,53.5-36.9l16.5-39.6c5.5-13.1,15-23.8,30.4-23.8h178.5c12.6,0,23.7,6.7,28.5,18.1l17.6,42.2c9.9,23.7,31.3,40.6,57.6,40.6h61.5c13,.2,26.2-4.9,34.7-14.4s10.9-26.7,5.8-41.2l-76-177.1c-1.5-.3-1.5-2.5-1.8-3.5l-.4-1.7-11.1-25.2c-.5-1.1,0-3.7-1.8-3.6l-104.9-241.2c-14.3-32.8-49.3-56.6-85.6-50.7-21.7,71.7-63.8,132.9-123.3,175.8Z"/>
    <g>
      <path class="st6" d="M1128.4,997.1c-1.7-3.5-195.9-452.3-195.9-452.3-14.3-32.8-49.3-56.6-85.6-50.7-21.7,71.7-63.8,132.9-123.3,175.8-21.6,16.1-44.8,27.8-71.1,38.2,0,0-122.5,291.6-122.5,291.6-9.8,23.4,5.7,46.3,28.4,51.3,43.5,3.5,117.9,13.6,138.7-35.7,10.9-20.1,16.9-64.2,46.9-63.4,0,0,178.5,0,178.5,0,12.6,0,23.7,6.8,28.5,18.1,13.4,34.1,29.8,84.9,75.2,82.9,39.5-.2,122.5,11.6,102.1-55.6ZM883.5,833.1c-23.3,4.6-67.7-.2-92.1,1-13.7-.9-20.9-14.3-16.9-26.2,0,0,26.7-67.3,26.7-67.3,6.7-8.9,16.8-59.3,33.8-55.8,17.5-6.7,52.2,112.9,59.2,120.7,4.1,10,.9,24.4-10.7,27.6Z"/>
      <path class="st1" d="M844.3,834.6l-52.9-.4c-6.7,0-12.3-4.7-14.8-8.6-3-4.5-4.2-12.1-2-17.6l26.7-67.3,19.9-47.3c2.4-5.6,8.9-8.7,13.9-8.6,4.8.2,11.4,3.1,13.8,8.8l45.4,111.8c4.1,10,.9,24.4-10.7,27.6-12,3.3-26.2,1.6-39.2,1.5Z"/>
    </g>
  </g>
  <path class="st7" d="M55.6,829.5c-1.6,4.1-3.9,8.4-7.8,11"/>
  <path class="st7" d="M31.8,862.4"/>
  <path class="st7" d="M35.6,856.6"/>
  <path class="st2" d="M1027.8,825.3"/>
  <path class="st3" d="M814.4,778c1.4-2.4,3.4-1.1,3.7-.3s0,2.1-.9,2.7-3.1.3-2.8-2.5Z"/>
  <path class="st10" d="M12.1,444.7c-1.5,3.3-1,5.3.6,7.9-6.6.4-10-2.7-12.7-7.3l12.1-.6Z"/>
  <path class="st8" d="M603.8,846c.6-.9,1.4-1.4,2.1-1.9-.5.5-1.3,1.5-2.1,1.9Z"/>
  <path class="st5" d="M788.9,264.5C740.7-2.5,552.9-7,268.7,2.5c-60.7,0-118,5.1-160.5,51.8-28.4,28.9-39.4,68.1-41.7,107.3,0,99.2-.1,546.5,1.2,659.7,1.7,147.5-1.2,184,129.6,184s80.4-49.1,80.4-108.7,2.6-152.8,2.6-157.1c0-189.3,268,27.3,439-197.5,62.6-73.5,81.7-181.7,69.6-277.5Z"/>
  <path class="st1" d="M560.4,205.2c28.4,20.9,48.9,50.7,55.9,86.5,7.2,37,5.4,74.6-7.1,109.5-20.8,58-74.4,86.5-135,92.5l-65.2,1.7c-62.7,1.6-124.5-5.4-166.2-53.7l-14.2-20.1-3.8-6.9-7.9-19.4-1.3-3.9-5.1-27.2-1.8-16.5c-.4-42.1,1.4-58.9,18.4-96.6.9-1.9,2.8-5.4,3.9-6.9l10.5-14.3c32-36.5,78-52.5,126.3-52.5h94.4c32.5.2,74.4,10.3,98.2,27.8ZM344.2,328.3c5.2-8.9,4.5-19,2.8-28.5-2-11.2-10.6-18.8-20.8-19.9s-19.8,4.5-24,14.5c-4.5,10.9-4.4,24.1,1.3,34.4s12.7,12,21,11.9,15-4.5,19.7-12.4ZM527.5,324.9c3.9-10.2,3.4-21.3-.7-30.6-4.2-9.5-13-15-22.7-14.5-8.7.4-16.8,5.9-20.3,15.2-3.8,9.8-3.8,21.2.2,31.1,3.7,9.3,12.7,14.8,21.8,14.7,9.2-.1,17.8-5.6,21.7-15.9ZM323.8,383.9c3.8-19.4-12.6-33.9-29.8-33.5s-30.7,14.7-27.9,32.5c2.2,14.3,14.8,22.6,27.9,23.1,12.6.5,26.9-7.3,29.7-22.1ZM564.1,380c.9-15.8-10.8-27-25-29.1-11.2-1.7-21.6,2.3-27.8,10.6-6,8-8.4,18.3-3.7,28.3,5.7,12.2,19.1,18,31.9,16,11.8-1.8,23.8-11.7,24.6-25.7ZM462.3,381.7c3-6.2-2.1-12.6-6-13.9-5.8-1.9-9.8.6-13.7,5.8-13.4,18.1-42.7,17.8-56.2-.3-3.9-5.3-9-7.9-14.9-4.8-4.2,2.2-6.9,9.3-4,14.6,8.9,16.4,26.3,24.6,45.1,25.3,20.1.7,40.4-7.8,49.7-26.7Z"/>
  <g>
    <path class="st4" d="M598.6,187c1.9.2,3.4-4.1,2.4-6.1-.7-1.4-5.1-1.8-7,0-1.3,1.3,1.9,5.8,4.6,6.1Z"/>
    <path class="st4" d="M690.2,134.3l-12.1.6c2.7,4.5,6.1,7.6,12.7,7.3-1.6-2.6-2.1-4.5-.6-7.9Z"/>
    <path class="st4" d="M701.3,522.3c-7.8,9.2,5,11.9,12.3,7,4.5-2.2,5.4-5.4,2.7-8.4-2.4-2.8-12.8-.3-15,1.4Z"/>
    <path class="st4" d="M657.1,572.5c-1.7,4.7-2.8,5.5-8.6,8.1,6.4,2.4,12.6,3.2,18.4.1,2.7-1.4,0-7.1-1.6-9.1-1.4-1.9-7.2-1.9-8.2.8Z"/>
    <path class="st4" d="M560.4,205.2c-46.1-36-136.6-26.6-192.6-27.8-53.8-.3-106.9,21-136.8,66.8-2.3-5.4-9.3-10.9-16.2-9.8-3.8,7,2.5,11.9,12.3,16.7-17,37.6-18.8,54.4-18.4,96.6,0,0-7.4,9.2-7.4,9.2-2.2,5.1,4.3,9.7,9.2,7.3l5.1,27.2c-4.1-.5-13.2,2.8-10.9,8.6,2.8,5.3,6.9-4.8,12.2-4.7l7.9,19.4c-5.1.4-6,5.5-8.9,8.7-1.4,1.5-5.9,1.1-6.2,2.6-.4,1.8-.1,4.8.3,8.1l-9-2c1.8,4.9,2.4,8.1,5.7,13,3.6-3.4,3.4-6.7,3.4-10.9,11.8-.6,12.1-10.1,18.5-12.5,37.2,63.8,110,76.7,180.5,73.8,78.3,2.9,171.6-10.5,200.2-94.2,23.7-66.3,12.5-154-48.8-196Z"/>
    <polygon class="st4" points="208.1 315.1 206.9 314.2 206 315.1 206.9 316 208.1 315.1"/>
  </g>
  <path class="st9" d="M564.1,380c-.8,14.1-12.9,23.9-24.6,25.7-12.8,2-26.1-3.9-31.9-16-4.7-9.9-2.3-20.3,3.7-28.3,6.2-8.2,16.6-12.2,27.8-10.6,14.1,2.1,25.9,13.3,25,29.1Z"/>
  <path class="st9" d="M323.8,383.9c-2.9,14.8-17.1,22.7-29.7,22.1-13.1-.6-25.7-8.9-27.9-23.1-2.8-17.8,11.4-32.1,27.9-32.5s33.6,14,29.8,33.5Z"/>
  <path class="st0" d="M344.2,328.3c-4.7,8-12.2,12.3-19.7,12.4s-16.5-3.8-21-11.9-5.8-23.5-1.3-34.4c4.1-10,13.9-15.6,24-14.5s18.8,8.8,20.8,19.9c1.7,9.4,2.4,19.6-2.8,28.5Z"/>
  <path class="st0" d="M527.5,324.9c-3.9,10.2-12.5,15.7-21.7,15.9-9.1.1-18-5.4-21.8-14.7-4-9.9-4-21.3-.2-31.1,3.5-9.3,11.6-14.8,20.3-15.2,9.6-.5,18.5,5,22.7,14.5,4.1,9.3,4.5,20.4.7,30.6Z"/>
  <path class="st0" d="M462.3,381.7c-9.3,18.9-29.6,27.4-49.7,26.7-18.8-.6-36.2-8.8-45.1-25.3-2.9-5.4-.2-12.5,4-14.6,5.9-3,11-.5,14.9,4.8,13.4,18.1,42.8,18.4,56.2.3,3.9-5.2,7.9-7.7,13.7-5.8s9.1,7.7,6,13.9Z"/>
  <polygon class="st7" points="206.9 314.2 208.1 315.1 206.9 316 206 315.1 206.9 314.2"/>
</svg>